<?xml version="1.0" encoding="UTF-8" standalone="no"?>
<!-- Created with Inkscape (http://www.inkscape.org/) -->

<svg
   xmlns:dc="http://purl.org/dc/elements/1.1/"
   xmlns:cc="http://creativecommons.org/ns#"
   xmlns:rdf="http://www.w3.org/1999/02/22-rdf-syntax-ns#"
   xmlns:svg="http://www.w3.org/2000/svg"
   xmlns="http://www.w3.org/2000/svg"
   xmlns:sodipodi="http://sodipodi.sourceforge.net/DTD/sodipodi-0.dtd"
   xmlns:inkscape="http://www.inkscape.org/namespaces/inkscape"
   width="35.213249mm"
   height="14.03358mm"
   viewBox="0 0 35.213249 14.03358"
   version="1.1"
   id="svg4869"
   inkscape:version="0.92pre1 15049"
   sodipodi:docname="mobileSSI.svg">
  <defs
     id="defs4863" />
  <sodipodi:namedview
     id="base"
     pagecolor="#ffffff"
     bordercolor="#666666"
     borderopacity="1.0"
     inkscape:pageopacity="0.0"
     inkscape:pageshadow="2"
     inkscape:zoom="1.4"
     inkscape:cx="5.7345773"
     inkscape:cy="-142.02825"
     inkscape:document-units="mm"
     inkscape:current-layer="layer1"
     showgrid="false"
     fit-margin-top="0"
     fit-margin-left="0"
     fit-margin-right="0"
     fit-margin-bottom="0"
     inkscape:window-width="1920"
     inkscape:window-height="1147"
     inkscape:window-x="-8"
     inkscape:window-y="-8"
     inkscape:window-maximized="1" />
  <metadata
     id="metadata4866">
    <rdf:RDF>
      <cc:Work
         rdf:about="">
        <dc:format>image/svg+xml</dc:format>
        <dc:type
           rdf:resource="http://purl.org/dc/dcmitype/StillImage" />
        <dc:title></dc:title>
      </cc:Work>
    </rdf:RDF>
  </metadata>
  <g
     inkscape:label="Ebene 1"
     inkscape:groupmode="layer"
     id="layer1"
     transform="translate(-49.48415,-41.841839)">
    <g
       transform="matrix(0.18283813,0,0,0.18283813,125.61979,219.80186)"
       style="display:inline;opacity:1"
       id="g5720">
      <g
         transform="translate(-367.1,-973.32)"
         id="g6179">
        <path
           d="m 135.8,21.464 c -2.045,0.553 -4.059,0.521 -6.449,0 -3.873,-1.615 -6.547,-4.431 -7.564,-8.898 -0.061,-2.061 -0.01,-4.016 0.668,-5.338 1.424,-2.832 3.102,-5.089 5.783,-6.229 11.689,-4.966 19.297,9.808 12.457,17.351 -0.983,1.082 -3.366,2.403 -4.895,3.114 z m -4.447,-5.562 c 8.041,1.542 8.346,-11.738 0,-9.788 -5.307,1.24 -4.475,8.93 0,9.788 z"
           id="path6181"
           inkscape:connector-curvature="0"
           style="fill:#ee402b" />
        <path
           d="m 135.8,21.464 v 34.477 c -1.725,-0.498 -4.359,-0.085 -6.449,-0.221 V 21.464 c 2.39,0.522 4.404,0.554 6.449,0 z"
           id="path6183"
           inkscape:connector-curvature="0"
           style="fill:#231f20" />
        <path
           d="M 121.78,12.565 H 95.534 c -7.438,0 -19.57,-1.858 -23.358,2.669 -1.848,2.208 -2.03,7.112 -0.889,9.787 1.642,3.854 8.973,3.782 15.571,3.782 11.557,0 27.311,-1.763 31.809,5.339 2.898,4.578 1.918,14.433 -0.891,17.796 -3.146,3.771 -11.996,4.449 -20.02,4.449 -11.865,0 -26.944,1.72 -30.919,-5.34 h 22.912 c 7.672,0 16.986,1.254 21.357,-1.557 2.957,-1.903 4.6,-9.07 1.775,-12.68 -3.01,-3.853 -17.688,-2.447 -24.691,-2.447 -8.307,0 -18.035,0.143 -21.575,-4.893 C 63.864,25.555 64.134,16.962 66.391,12.563 H 26.575 c -6.602,0 -16.184,-1.165 -19.13,2.893 -1.807,2.487 -1.861,8.352 0,10.678 2.574,3.216 9.779,2.669 15.793,2.669 11.985,0 26.909,-2.081 31.142,5.785 2.539,4.714 1.523,14.412 -1.334,17.571 -3.801,4.202 -12.755,4.228 -21.577,4.228 -12.008,0 -25.2,1.349 -29.14,-5.116 10.535,-0.726 26.935,0.874 38.927,-0.224 1.858,-0.17 3.989,-0.689 5.339,-1.557 2.957,-1.901 4.411,-9.182 1.557,-12.68 -3.247,-3.98 -15.566,-2.505 -23.357,-2.447 -7.433,0.057 -17.95,-0.002 -21.8,-3.78 -4.512,-4.43 -3.69,-16.622 0.89,-20.243 5.608,-4.431 18.54,-3.336 27.584,-3.336 25.41,0 52.51,0.223 76.299,0.223 4.986,0 11.326,-0.088 14.682,0 -0.678,1.323 -0.728,3.278 -0.67,5.338 z"
           id="path6185"
           inkscape:connector-curvature="0"
           style="fill:#231f20" />
      </g>
      <text
         line-height="125%"
         x="-308.91434"
         y="-1058.6298"
         font-size="29.507px"
         xml:space="preserve"
         transform="scale(1.1802946,0.84724611)"
         style="font-size:29.50699997px;line-height:125%;font-family:Sans;letter-spacing:0px;word-spacing:0px;fill:#008595"
         id="text6197"
         sodipodi:linespacing="125%"><tspan
           x="-308.91434"
           y="-1058.6298"
           font-weight="bold"
           id="tspan6199"
           style="font-weight:bold;font-family:Sans;fill:#008595">mobile</tspan></text>
      <g
         id="g4318"
         transform="translate(0,0.79812655)">
        <path
           style="fill:#a4c333;fill-opacity:1;fill-rule:evenodd;stroke:none;stroke-width:0.39906329px;stroke-linecap:butt;stroke-linejoin:miter;stroke-opacity:1"
           d="m -407.87592,-924.44635 c 8.04311,0.0542 16.08621,0.10833 24.12932,0.16249 -0.36654,-4.42226 -2.26311,-9.10975 -6.29263,-11.39041 -3.31743,-2.04022 -7.48213,-1.82316 -11.10445,-0.65333 -4.03905,1.53966 -5.47339,5.76926 -6.22073,9.61196 -0.20211,0.7502 -0.44125,1.4904 -0.51151,2.26929 z"
           id="path4157-8"
           inkscape:connector-curvature="0"
           sodipodi:nodetypes="cccccc" />
        <path
           style="fill:#a4c333;fill-opacity:1;fill-rule:evenodd;stroke:none;stroke-width:0.39906329px;stroke-linecap:butt;stroke-linejoin:miter;stroke-opacity:1"
           d="m -379.60318,-909.82252 c 0.21557,0.495 0.4896,0.88825 0.93711,1.13629 0.26575,0.14729 0.35857,0.24691 0.90805,0.36631 0.90432,0.22698 1.53006,0.23622 2.21168,-0.49265 0.57221,-0.67273 0.39936,-1.45618 0.34383,-2.1327 -0.12098,-0.63668 -0.35459,-1.24649 -0.5086,-1.87686 l -2.34849,-8.45575 c -0.29393,-0.78172 -1.13918,-1.57222 -2.01541,-1.48631 -0.76377,-0.0163 -1.45661,0.56404 -1.91235,1.16994 -0.45443,0.70663 -0.30391,1.35097 -0.0972,2.33546 0.82334,3.1457 1.655,6.29077 2.48134,9.43627 z"
           id="path4169"
           inkscape:connector-curvature="0"
           sodipodi:nodetypes="csccccccccc" />
        <path
           style="fill:#a4c333;fill-opacity:1;fill-rule:evenodd;stroke:none;stroke-width:1px;stroke-linecap:butt;stroke-linejoin:miter;stroke-opacity:1"
           d="m -407.53612,-922.9705 c 0.71038,5.70704 -4.08112,11.25459 -1.185,16.84995 2.34384,4.83895 7.11927,8.02777 12.96827,7.9251 5.87526,0.0131 11.13572,-3.26133 13.49099,-8.10013 2.91025,-5.59528 -2.36544,-11.05602 -1.65159,-16.763 z"
           id="path4175"
           inkscape:connector-curvature="0"
           sodipodi:nodetypes="cccccc" />
        <path
           style="fill:#ffffff;fill-opacity:1;fill-rule:evenodd;stroke:none;stroke-width:0.39906329px;stroke-linecap:butt;stroke-linejoin:miter;stroke-opacity:1"
           d="m -385.26233,-909.99648 c 1.20052,5.63549 -2.95341,9.34003 -8.6601,10.62529 -5.26709,0.72846 -12.09446,-1.23173 -12.8456,-7.14857 -1.51995,-6.87092 2.74628,-15.0187 10.50984,-15.93609 7.10084,-0.82229 10.84452,6.74395 10.99586,12.45937 z"
           id="path4203"
           inkscape:connector-curvature="0"
           sodipodi:nodetypes="ccccc" />
        <path
           style="fill:#ffffff;fill-opacity:1;fill-rule:evenodd;stroke:none;stroke-width:0.39906329px;stroke-linecap:butt;stroke-linejoin:miter;stroke-opacity:1"
           d="m -395.8072,-929.09262 c 0.39652,-2.41184 -1.3664,-4.40191 -3.35857,-4.86359 -1.98455,-0.45992 -4.26841,0.86478 -4.72802,3.12857 -1.05262,4.63694 3.76703,8.66465 6.91872,4.88522 0.694,-0.89702 0.99428,-1.55108 0.99538,-2.46071"
           id="path4214-8"
           inkscape:connector-curvature="0"
           sodipodi:nodetypes="csccc" />
        <path
           style="fill:#ffffff;fill-opacity:1;fill-rule:evenodd;stroke:none;stroke-width:0.39906329px;stroke-linecap:butt;stroke-linejoin:miter;stroke-opacity:1"
           d="m -394.37101,-931.64905 c 0.90069,-0.84807 2.3967,-0.83539 3.55971,-0.56566 1.71814,0.39849 3.08567,1.73412 2.77652,3.72752 -0.16597,3.48203 -5.00223,4.48516 -6.90901,1.77894 -1.26338,-1.41916 -0.68655,-3.58109 0.57278,-4.9408 z"
           id="path4216"
           inkscape:connector-curvature="0"
           sodipodi:nodetypes="csccc" />
        <ellipse
           style="opacity:1;fill:#000000;fill-opacity:1;stroke:#000000;stroke-width:0.58263242;stroke-linecap:round;stroke-linejoin:round;stroke-miterlimit:4;stroke-dasharray:none;stroke-dashoffset:0;stroke-opacity:1"
           id="path4242"
           cx="-397.21466"
           cy="-928.76233"
           rx="0.89044136"
           ry="1.4505576" />
        <ellipse
           style="opacity:1;fill:#000000;fill-opacity:1;stroke:#000000;stroke-width:0.58263242;stroke-linecap:round;stroke-linejoin:round;stroke-miterlimit:4;stroke-dasharray:none;stroke-dashoffset:0;stroke-opacity:1"
           id="path4242-0"
           cx="-394.31357"
           cy="-928.71924"
           rx="0.89044136"
           ry="1.4505576" />
        <path
           style="fill:#f9cc67;fill-opacity:1;fill-rule:evenodd;stroke:none;stroke-width:0.39906329px;stroke-linecap:butt;stroke-linejoin:miter;stroke-opacity:1"
           d="m -399.38129,-925.16302 c -0.3375,0.46467 0.0304,0.98783 0.3105,1.37097 0.53733,0.73189 1.08181,1.34638 1.68473,2.13576 1.06158,1.20774 2.56517,1.01031 3.43959,-0.17665 0.68496,-0.80845 1.82412,-1.57739 1.97502,-2.66364 0.11247,-0.87669 -0.60772,-1.61949 -1.41294,-1.82237 -0.30229,-0.1033 -1.39552,-0.27172 -1.86074,-0.34585 -1.11623,0.0652 -2.28676,0.1495 -3.18942,0.62815 -0.37963,0.20131 -0.64501,0.55595 -0.94674,0.87363 z"
           id="path4265"
           inkscape:connector-curvature="0"
           sodipodi:nodetypes="cccccccsc" />
        <path
           style="fill:#f9cc67;fill-opacity:1;fill-rule:evenodd;stroke:none;stroke-width:0.39906329px;stroke-linecap:butt;stroke-linejoin:miter;stroke-opacity:1"
           d="m -397.99022,-897.69738 c 1.22166,-0.67554 1.58215,-2.74555 0.8538,-3.84604 -1.98861,-2.14833 -4.61164,-2.64013 -7.79945,-2.58526 -2.39026,0.0524 -4.09929,1.33717 -5.2311,2.94499 -1.2655,1.69146 -0.84997,3.48463 2.4768,3.38923 3.22751,0.0221 6.46734,0.0715 9.69995,0.0971 z"
           id="path4282-0"
           inkscape:connector-curvature="0"
           sodipodi:nodetypes="ccccccc" />
        <path
           style="fill:#f9cc67;fill-opacity:1;fill-rule:evenodd;stroke:none;stroke-width:0.39906329px;stroke-linecap:butt;stroke-linejoin:miter;stroke-opacity:1"
           d="m -393.33694,-897.63993 c -2.72516,-0.64969 -1.19192,-4.51653 0.53425,-5.26617 3.17413,-1.97441 7.52121,-1.65094 10.42355,0.65446 1.76059,1.21667 1.97303,5.11573 -0.86812,4.7687 -3.33946,-0.25958 -6.73178,-0.0725 -10.08968,-0.15699 z"
           id="path4284"
           inkscape:connector-curvature="0"
           sodipodi:nodetypes="ccccc" />
        <path
           style="opacity:1;fill:#a4c333;fill-opacity:1;fill-rule:evenodd;stroke:none;stroke-width:0.39906329px;stroke-linecap:butt;stroke-linejoin:miter;stroke-opacity:1"
           d="m -416.3656,-911.37066 c -0.0836,0.53339 -0.0632,1.01223 0.18157,1.46155 0.14529,0.26685 0.17016,0.40079 0.5699,0.79626 0.64156,0.67651 1.16471,1.01996 2.13093,0.77033 0.84373,-0.26088 1.11806,-1.01487 1.43401,-1.61563 0.23937,-0.60227 0.36925,-1.24224 0.57735,-1.8569 l 2.55282,-8.39628 c 0.17119,-0.8174 -0.11829,-1.93792 -0.9039,-2.33537 -0.63606,-0.42312 -1.53188,-0.30518 -2.24149,-0.0382 -0.76256,0.35274 -0.98107,0.97727 -1.33462,1.91905 -0.99219,3.0966 -1.97705,6.19715 -2.9666,9.29517 z"
           id="path4169-7"
           inkscape:connector-curvature="0"
           sodipodi:nodetypes="csccccccccc" />
        <path
           style="fill:none;fill-rule:evenodd;stroke:#a4c333;stroke-width:0.39874905;stroke-linecap:round;stroke-linejoin:miter;stroke-miterlimit:4;stroke-dasharray:none;stroke-opacity:1"
           d="m -403.48877,-940.49194 2.64041,5.24021"
           id="path4314"
           inkscape:connector-curvature="0" />
        <path
           style="fill:none;fill-rule:evenodd;stroke:#a4c333;stroke-width:0.39874905;stroke-linecap:round;stroke-linejoin:miter;stroke-miterlimit:4;stroke-dasharray:none;stroke-opacity:1"
           d="m -390.77416,-935.04862 2.59979,-5.48394"
           id="path4316"
           inkscape:connector-curvature="0" />
      </g>
    </g>
  </g>
</svg>
